<svg width="101" height="40" viewBox="0 0 101 40" fill="none" xmlns="http://www.w3.org/2000/svg">
<path d="M13.5983 15.265C12.1339 16.7295 12.1339 19.1038 13.5983 20.5683L20 26.97L26.4017 20.5683C27.8661 19.1038 27.8661 16.7295 26.4016 15.265C24.9372 13.8005 22.5628 13.8005 21.0983 15.265L20 16.3634L18.9017 15.265C17.4372 13.8005 15.0628 13.8005 13.5983 15.265Z" stroke="#545F71" stroke-width="2" stroke-linecap="round" stroke-linejoin="round"/>
<path d="M35.4712 27V15.3636H39.9257C40.7666 15.3636 41.4655 15.4962 42.0223 15.7614C42.5829 16.0227 43.0015 16.3807 43.278 16.8352C43.5583 17.2898 43.6984 17.8049 43.6984 18.3807C43.6984 18.8542 43.6075 19.2595 43.4257 19.5966C43.2439 19.9299 42.9996 20.2008 42.6928 20.4091C42.3859 20.6174 42.0431 20.767 41.6643 20.858V20.9716C42.0772 20.9943 42.4731 21.1212 42.8518 21.3523C43.2344 21.5795 43.5469 21.9015 43.7893 22.3182C44.0318 22.7348 44.153 23.2386 44.153 23.8295C44.153 24.4318 44.0071 24.9735 43.7155 25.4545C43.4238 25.9318 42.9844 26.3087 42.3973 26.5852C41.8102 26.8617 41.0715 27 40.1814 27H35.4712ZM37.5791 25.2386H39.8462C40.6113 25.2386 41.1625 25.0928 41.4996 24.8011C41.8405 24.5057 42.0109 24.1269 42.0109 23.6648C42.0109 23.3201 41.9257 23.0095 41.7553 22.733C41.5848 22.4527 41.3424 22.233 41.028 22.0739C40.7136 21.911 40.3386 21.8295 39.903 21.8295H37.5791V25.2386ZM37.5791 20.3125H39.6643C40.028 20.3125 40.3556 20.2462 40.6473 20.1136C40.939 19.9773 41.1681 19.786 41.3348 19.5398C41.5053 19.2898 41.5905 18.9943 41.5905 18.6534C41.5905 18.2027 41.4314 17.8314 41.1132 17.5398C40.7988 17.2481 40.331 17.1023 39.7098 17.1023H37.5791V20.3125ZM45.6668 27V15.3636H53.235V17.1307H47.7747V20.2898H52.8429V22.0568H47.7747V25.233H53.2804V27H45.6668ZM55.0655 27V15.3636H59.4292C60.3231 15.3636 61.0731 15.5189 61.6792 15.8295C62.289 16.1402 62.7493 16.5758 63.0599 17.1364C63.3743 17.6932 63.5314 18.3428 63.5314 19.0852C63.5314 19.8314 63.3724 20.4792 63.0542 21.0284C62.7398 21.5739 62.2758 21.9962 61.6621 22.2955C61.0485 22.5909 60.2947 22.7386 59.4008 22.7386H56.2928V20.9886H59.1167C59.6394 20.9886 60.0674 20.9167 60.4008 20.7727C60.7341 20.625 60.9803 20.411 61.1394 20.1307C61.3023 19.8466 61.3837 19.4981 61.3837 19.0852C61.3837 18.6723 61.3023 18.3201 61.1394 18.0284C60.9765 17.733 60.7284 17.5095 60.3951 17.358C60.0618 17.2027 59.6318 17.125 59.1053 17.125H57.1735V27H55.0655ZM61.0769 21.7273L63.9576 27H61.6053L58.7758 21.7273H61.0769ZM65.1518 27V15.3636H67.2597V25.233H72.3847V27H65.1518ZM76.0022 15.3636V27H73.8943V15.3636H76.0022ZM87.5274 15.3636V27H85.6524L80.1695 19.0739H80.0729V27H77.9649V15.3636H79.8513L85.3286 23.2955H85.4308V15.3636H87.5274Z" fill="#545F71"/>
</svg>
